<svg width="101" height="108" viewBox="0 0 101 108" fill="none" xmlns="http://www.w3.org/2000/svg">
<path d="M51.0351 103.867L50.9762 104.865C50.9946 104.866 51.0131 104.867 51.0316 104.867L51.0351 103.867ZM51.0351 103.867C51.0316 104.867 51.0319 104.867 51.0324 104.867L51.034 104.867L51.0388 104.867L51.0559 104.867L51.1193 104.867C51.1744 104.866 51.2548 104.866 51.3593 104.864C51.5683 104.861 51.8737 104.854 52.2656 104.839C53.0493 104.81 54.179 104.751 55.574 104.63C58.3623 104.387 62.2188 103.897 66.4937 102.902C75.0117 100.921 85.3459 96.9053 92.1172 88.7118C98.9245 80.4782 99.6201 70.8943 98.6534 63.459C98.1695 59.737 97.2667 56.527 96.4855 54.2472C96.0945 53.1063 95.733 52.1954 95.4677 51.5666C95.335 51.2522 95.2262 51.008 95.1498 50.8407C95.1372 50.8132 95.1256 50.7877 95.1148 50.7644C95.1104 50.6886 95.1047 50.5917 95.0976 50.4748C95.0783 50.1594 95.0486 49.698 95.0069 49.1114C94.9233 47.9383 94.7914 46.2639 94.5973 44.2546C94.2095 40.2384 93.5726 34.8726 92.5764 29.4931C91.766 25.1161 90.7124 20.701 89.3501 16.988C88.0041 13.3197 86.2944 10.1566 84.0689 8.48293L84.0686 8.48273C82.879 7.58866 81.6814 7.09323 80.4877 6.97539C79.2916 6.85731 78.1731 7.12578 77.157 7.64198C75.1734 8.64959 73.5331 10.623 72.2387 12.6927C72.2304 12.7047 72.2223 12.717 72.2146 12.7294C70.8237 14.9562 69.745 17.4363 69.017 19.3421C68.6996 20.1729 68.4466 20.9006 68.2614 21.4589C65.8646 20.2202 59.8631 17.4448 53.8778 17.2659C53.8149 17.264 53.7531 17.268 53.6929 17.2774C47.7756 17.1179 41.7112 19.4405 39.2609 20.5034C39.1627 20.1261 39.0397 19.6729 38.8916 19.1632C38.4558 17.6626 37.7988 15.657 36.9144 13.6454C36.9087 13.6304 36.9026 13.6156 36.8961 13.6009C36.0133 11.5976 34.8789 9.53499 33.4714 7.96459C32.0667 6.39725 30.2823 5.20652 28.1208 5.23746L28.1195 5.23748C26.8881 5.2567 25.6165 5.68329 24.3381 6.52101C22.5013 7.72099 20.9385 9.85093 19.5984 12.3961C18.2465 14.9637 17.0649 18.0647 16.0417 21.3335C13.9977 27.8637 12.5514 35.1776 11.6545 40.5069C11.6477 40.5393 11.6424 40.5673 11.6384 40.5908C11.6358 40.6057 11.6338 40.6188 11.6321 40.63C11.6321 40.63 11.6321 40.6301 11.6321 40.6301L11.495 41.4589L11.4948 41.4602C11.1651 43.4705 10.9206 45.1486 10.7584 46.3251C10.6773 46.9134 10.6167 47.3764 10.5764 47.6931C10.5619 47.8069 10.55 47.9017 10.5407 47.9767C10.5288 47.9977 10.516 48.0203 10.5023 48.0446C10.4111 48.2069 10.2808 48.4439 10.1204 48.7497C9.79964 49.361 9.35814 50.2483 8.86799 51.3637C7.88864 53.5923 6.70992 56.7435 5.91528 60.4335C4.32795 67.8043 4.25421 77.4365 10.5114 86.1081C16.7345 94.7323 26.9195 99.4017 35.417 101.921C39.6827 103.186 43.5636 103.921 46.3787 104.34C47.787 104.55 48.9306 104.681 49.7248 104.759C50.1219 104.799 50.4318 104.825 50.6438 104.841C50.7499 104.85 50.8315 104.856 50.8873 104.859L50.9516 104.864L50.9689 104.865L50.9738 104.865L50.9753 104.865C50.9758 104.865 50.9762 104.865 51.0351 103.867Z" fill="#5C5C68" stroke="black" stroke-width="2" stroke-linejoin="round"/>
<g opacity="0.6">
<path opacity="0.6" d="M68.5483 23.6347C64.9842 23.0845 61.2735 22.2892 57.7436 21.8181C57.1897 22.5965 55.3891 23.1682 53.2573 23.165C50.8234 23.1565 48.8353 22.4086 48.6219 21.4616C42.5201 21.705 38.28 22.6444 38.28 22.6444L38.2832 22.6406C38.4937 22.5376 46.2147 18.7438 53.5529 19.0078L53.555 18.9906C60.8826 19.2066 68.318 23.5002 68.5483 23.6347Z" fill="white"/>
</g>
<g opacity="0.6">
<path opacity="0.6" d="M91.5928 29.6764C83.6369 1.67932 73.344 12.943 73.0689 13.2528C75.6034 9.18823 79.178 6.05917 83.4681 9.2834C87.4273 12.2614 89.9818 20.9754 91.5928 29.6764Z" fill="white"/>
</g>
<g opacity="0.6">
<path opacity="0.6" d="M35.9461 13.6384C21.8139 -4.85577 13.0407 38.125 12.6021 40.3316C14.3893 29.7037 18.3565 11.2358 24.8508 6.99325C26.0056 6.23642 27.0956 5.88847 28.1004 5.87338C31.6107 5.82254 34.2187 9.71576 35.9461 13.6384Z" fill="white"/>
</g>
<path d="M35.5899 36.8664C34.8035 36.9156 34.023 37.0348 33.2578 37.2228C20.393 40.327 19.8843 61.2934 19.8843 61.2934C19.8843 61.2934 13.4411 57.8269 9.55475 65.1245C6.7593 70.3725 7.80958 77.3616 8.62377 80.9354C9.32777 82.4798 10.1409 84.0186 11.204 85.5189C23.0428 102.225 50.2149 103.838 50.2149 103.838C50.2149 103.838 50.7086 103.811 50.7592 103.811C50.8099 103.811 51.2999 103.874 51.2999 103.874C51.2999 103.874 78.5201 104.047 91.4293 88.1545C92.5881 86.7271 93.5009 85.2448 94.3048 83.7504C95.3523 80.2378 96.8594 73.3323 94.4136 67.9123C91.0151 60.3762 84.3575 63.4114 84.3575 63.4114C84.3575 63.4114 85.2265 42.4566 72.5932 38.5152C71.0141 38.0223 69.5181 37.8541 68.1047 37.9345C58.2093 38.4974 52.4837 51.32 52.4837 51.32C52.4837 51.32 47.6128 38.1489 37.7749 36.9411C37.0504 36.8495 36.319 36.8245 35.5899 36.8664Z" fill="white"/>
<g opacity="0.2">
<path opacity="0.2" d="M95.7956 77.9045C95.5484 79.8769 95.1368 81.8252 94.565 83.729C93.7626 85.2268 92.8496 86.7062 91.6891 88.1344C78.7793 104.027 51.5602 103.853 51.5602 103.853C51.5602 103.853 51.0694 103.795 51.0209 103.792C50.9723 103.789 50.4758 103.817 50.4758 103.817C50.4758 103.817 23.3055 102.205 11.4668 85.4996C10.3989 83.9986 9.58707 82.4608 8.88292 80.9146C8.56256 79.5078 8.32351 78.0837 8.16699 76.6494C8.41368 77.0215 8.67518 77.3923 8.9515 77.7618C21.4447 94.4123 50.3118 95.8826 50.3118 95.8826C50.3118 95.8826 50.8394 95.852 50.8914 95.8547C50.9435 95.8574 51.4641 95.9128 51.4641 95.9128C51.4641 95.9128 80.3871 95.9448 94.193 79.9769C94.7631 79.3146 95.298 78.6229 95.7956 77.9045Z" fill="black"/>
</g>
<path d="M18.108 38.2918L19.0927 38.466C18.108 38.2918 18.108 38.2917 18.1081 38.2914L18.1082 38.2904L18.1089 38.2866L18.1115 38.2724L18.1213 38.2171C18.13 38.1686 18.1429 38.0971 18.1599 38.004C18.1939 37.8178 18.244 37.5455 18.3093 37.1994C18.4398 36.5072 18.6307 35.5195 18.8726 34.3351C19.356 31.9678 20.0445 28.8075 20.8634 25.6472C21.6797 22.4965 22.6357 19.3057 23.6599 16.8961C24.1695 15.6973 24.7185 14.6369 25.3076 13.8644C25.854 13.1479 26.647 12.4008 27.6833 12.4363L18.108 38.2918ZM18.108 38.2918C18.0248 38.7624 18.2861 39.2261 18.7318 39.3986C19.1773 39.571 19.6826 39.4042 19.9379 39.0004M18.108 38.2918L19.9379 39.0004M33.1907 24.8079C34.1731 24.6207 34.173 24.6205 34.173 24.6203L34.1728 24.6196L34.1724 24.6175L34.1711 24.6103L34.1659 24.5838L34.1463 24.4848C34.1291 24.399 34.1036 24.2745 34.0702 24.1167C34.0033 23.8011 33.9043 23.3521 33.7748 22.8135C33.5164 21.7388 33.134 20.2966 32.6405 18.8437C32.1508 17.4022 31.5342 15.8971 30.7927 14.7264C30.4217 14.1408 29.9944 13.5981 29.5016 13.1886C29.0054 12.7762 28.3948 12.4606 27.6835 12.4363L33.1907 24.8079ZM33.1907 24.8079L34.1731 24.6207C34.2525 25.0374 34.0604 25.4588 33.6938 25.6721C29.496 28.1157 26.053 31.4453 23.65 34.1844C22.4515 35.5506 21.5189 36.7616 20.8876 37.6286C20.5721 38.0619 20.3323 38.4087 20.1725 38.6453C20.0926 38.7636 20.0327 38.8543 19.9935 38.9144C19.9738 38.9445 19.9594 38.9669 19.9501 38.9813L19.9402 38.9969L19.9381 39.0001L19.9381 39.0001M33.1907 24.8079L19.9381 39.0001M19.9381 39.0001C19.938 39.0002 19.938 39.0003 19.9379 39.0004M19.9381 39.0001L19.9379 39.0004" fill="#FF5283" stroke="black" stroke-width="2" stroke-linejoin="round"/>
<path d="M87.4287 40.1355C88.4228 40.0264 88.4228 40.0262 88.4227 40.0259L88.4226 40.0249L88.4222 40.0211L88.4206 40.0067L88.4144 39.9509C88.4089 39.902 88.4007 39.8297 88.3898 39.7357C88.3682 39.5477 88.336 39.2726 88.2936 38.9229C88.2087 38.2237 88.083 37.2255 87.9194 36.0276C87.5923 33.6335 87.1125 30.4346 86.5027 27.2272C85.8947 24.0296 85.1501 20.7829 84.286 18.3113C83.8561 17.0818 83.3778 15.9877 82.8404 15.1783C82.3422 14.4279 81.6 13.6307 80.5636 13.5984L87.4287 40.1355ZM87.4287 40.1355L88.4228 40.0264C88.4749 40.5014 88.1838 40.9469 87.7278 41.0898C87.2719 41.2326 86.7787 41.0331 86.5504 40.6135L86.5504 40.6135C86.5503 40.6134 86.5503 40.6133 86.5502 40.6132L86.5502 40.6131L86.5484 40.6098L86.5394 40.5936C86.5311 40.5786 86.5182 40.5553 86.5006 40.524C86.4653 40.4614 86.4116 40.367 86.3396 40.2437C86.1956 39.9972 85.979 39.6354 85.6925 39.1824C85.1193 38.2759 84.2681 37.0064 83.1616 35.5645C80.9431 32.6736 77.7254 29.1251 73.6962 26.4105C73.3445 26.1735 73.1805 25.7404 73.2871 25.3298L74.255 25.5812C73.2871 25.3298 73.2871 25.3296 73.2872 25.3294L73.2874 25.3288L73.2879 25.3267L73.2898 25.3196L73.2966 25.2935L73.3227 25.196C73.3455 25.1115 73.3791 24.9889 73.4228 24.8336C73.5103 24.5232 73.6386 24.0816 73.8032 23.5527C74.1317 22.4973 74.608 21.0833 75.1959 19.666C75.7792 18.2598 76.4934 16.7986 77.3103 15.6792C77.719 15.1191 78.1811 14.6057 78.6998 14.2295C79.2219 13.8507 79.852 13.576 80.5633 13.5984C80.5631 13.5984 80.5629 13.5984 80.5627 13.5984L87.4287 40.1355Z" fill="#FF5283" stroke="black" stroke-width="2" stroke-linejoin="round"/>
<path d="M37.3459 65.4013C36.2114 64.999 35.2607 64.5478 34.3284 64.1121C33.408 63.6708 32.5258 63.2492 31.6605 62.8545C30.8033 62.4624 29.9269 62.1138 29.0345 61.81C28.5807 61.6512 28.1122 61.529 27.6101 61.399C27.108 61.269 26.5793 61.1795 25.9781 61.0407C26.8348 60.1786 28.0498 59.7537 29.264 59.6792C30.4782 59.6048 31.7054 59.8833 32.7846 60.3714C33.8484 60.8595 34.8074 61.5492 35.6085 62.4024C36.3816 63.2513 37.0439 64.2197 37.3459 65.4013Z" fill="black"/>
<path d="M37.4827 65.5691C36.284 65.4561 35.2521 65.2514 34.2415 65.0567C33.231 64.862 32.2824 64.661 31.3469 64.4894C30.4092 64.3275 29.4957 64.1877 28.5475 64.1186C28.0686 64.0756 27.5841 64.0719 27.0653 64.0658C26.5464 64.0597 26.0119 64.105 25.3951 64.1177C26.0145 63.0723 27.0884 62.3634 28.248 61.9943C29.4075 61.6253 30.6648 61.5943 31.8309 61.8037C32.9818 62.017 34.0805 62.4514 35.066 63.0829C36.0233 63.7179 36.8983 64.4971 37.4827 65.5691Z" fill="black"/>
<path d="M64.0918 64.4941C65.2107 64.0471 66.1445 63.5638 67.06 63.0944C67.9657 62.6193 68.8295 62.1654 69.6796 61.7386C70.5218 61.3153 71.3846 60.9345 72.2648 60.5977C72.7131 60.4224 73.1768 60.2829 73.6731 60.1318C74.1694 59.9808 74.6953 59.875 75.2909 59.7144C74.4028 58.884 73.1742 58.5049 71.9572 58.4753C70.7402 58.4457 69.525 58.7688 68.4648 59.2974C67.4197 59.8246 66.4867 60.5495 65.7177 61.4319C64.974 62.3087 64.3496 63.3016 64.0918 64.4941Z" fill="black"/>
<path d="M63.9624 64.6658C65.1554 64.5071 66.1802 64.266 67.1827 64.0343C68.1853 63.8026 69.1256 63.5662 70.0544 63.3607C70.975 63.1559 71.9054 62.9977 72.842 62.8867C73.3193 62.8262 73.803 62.8064 74.3214 62.7795C74.8399 62.7526 75.3752 62.7797 75.9922 62.77C75.3342 61.7477 74.2352 61.0792 73.0623 60.7531C71.8895 60.4271 70.6326 60.4427 69.4751 60.695C68.3329 60.9507 67.251 61.4254 66.2894 62.0928C65.3523 62.7625 64.5042 63.5727 63.9624 64.6658Z" fill="black"/>
<g opacity="0.3">
<path opacity="0.3" d="M69.1761 76.6488C69.103 78.7753 65.0331 84.3772 59.869 81.3804C55.3834 78.7768 57.9827 74.318 57.9827 74.318L44.4843 73.5913C44.4843 73.5913 48.1516 79.6872 42.4892 81.2609C36.8267 82.8346 33.9809 75.0043 33.9809 75.0043C31.3133 82.9587 37.3114 86.0466 37.3114 86.0466C39.5667 95.7186 44.3244 100.442 50.2346 100.76C59.6345 101.266 64.5494 87.0876 64.5494 87.0876C71.1003 85.9179 69.1761 76.6488 69.1761 76.6488ZM56.7029 92.3109C56.6716 92.9101 56.5542 93.5017 56.3544 94.0676C55.4599 96.6068 52.996 98.373 50.2228 98.2238C47.4159 98.0721 45.1354 96.0034 44.5527 93.3379C44.4298 92.7841 44.3835 92.216 44.415 91.6496L44.7857 84.8114C46.1727 84.4831 47.4603 83.8255 48.5394 82.8943C49.3926 82.1617 50.0916 81.2667 50.5955 80.2614C51.0995 79.2561 51.3984 78.1605 51.4748 77.0385C51.3175 80.7925 53.6633 84.1004 57.0779 85.4052L56.7029 92.3109Z" fill="black"/>
</g>
<path d="M44.5562 93.3371C41.0561 90.108 39.6045 84.5037 39.6045 84.5037C41.2649 85.1102 43.0664 85.2175 44.7871 84.8125L44.4164 91.6506C44.3858 92.2165 44.4328 92.7839 44.5562 93.3371Z" fill="black"/>
<path d="M57.0794 85.4032L56.7075 92.311C56.6761 92.9105 56.5585 93.5023 56.3585 94.0683C55.4646 96.6075 53.0006 98.3732 50.2268 98.224C47.42 98.0729 45.1395 96.0035 44.5567 93.3381C44.4339 92.7843 44.3875 92.2162 44.4191 91.6498L44.7897 84.8116C46.1768 84.4835 47.4643 83.8261 48.5435 82.8951C49.3965 82.1623 50.0953 81.2673 50.5993 80.262C51.1033 79.2567 51.4023 78.1612 51.4789 77.0393C51.3215 80.7927 53.6655 84.0995 57.0794 85.4032Z" fill="#ED2E7A"/>
<path d="M62.4644 85.7323C62.4644 85.7323 60.4499 91.1564 56.357 94.0673C56.5571 93.5013 56.6746 92.9095 56.7061 92.31L57.078 85.4022C58.7982 86.0589 60.678 86.1741 62.4655 85.7322L62.4644 85.7323Z" fill="black"/>
<path d="M57.1245 85.9721C57.0983 85.9741 57.0719 85.9743 57.0457 85.9728C56.9706 85.9689 56.897 85.9502 56.8291 85.9177C56.7613 85.8853 56.7005 85.8397 56.6504 85.7837C56.6002 85.7277 56.5616 85.6623 56.5368 85.5913C56.512 85.5203 56.5014 85.4451 56.5058 85.3701L56.5625 84.3157C56.5772 84.169 56.648 84.0337 56.7601 83.9379C56.8722 83.8422 57.0169 83.7935 57.1641 83.8019C57.3113 83.8104 57.4495 83.8753 57.5499 83.9833C57.6504 84.0912 57.7052 84.2337 57.703 84.3811L57.6462 85.4349C57.6382 85.5722 57.5811 85.7019 57.4853 85.8006C57.3895 85.8992 57.2615 85.9601 57.1245 85.9721Z" fill="#390075"/>
<path d="M61.2145 86.8564C60.7463 86.8954 60.2759 86.9023 59.8067 86.8769C58.0142 86.7827 56.2795 86.2109 54.7823 85.2208C53.285 84.2308 52.0797 82.8584 51.2912 81.2459C50.4613 82.5547 49.3418 83.6554 48.0192 84.463C46.6965 85.2707 45.2061 85.7638 43.6627 85.9042C42.1193 86.0446 40.5643 85.8287 39.1176 85.273C37.6709 84.7173 36.3712 83.8367 35.3187 82.6992C33.5252 80.7487 32.6146 78.2338 32.7557 75.6168C32.7642 75.4601 32.8034 75.3066 32.8712 75.1651C32.939 75.0235 33.0341 74.8967 33.1509 74.7919C33.2677 74.687 33.404 74.6062 33.552 74.5541C33.7001 74.502 33.8569 74.4795 34.0137 74.488C34.1704 74.4964 34.3239 74.5357 34.4655 74.6035C34.607 74.6713 34.7338 74.7663 34.8386 74.8832C34.9435 75 35.0243 75.1363 35.0764 75.2843C35.1285 75.4324 35.151 75.5892 35.1425 75.7459C35.0897 76.7196 35.2339 77.6939 35.5664 78.6106C35.8989 79.5272 36.4129 80.3674 37.0776 81.0808C38.4428 82.5629 40.3364 83.4483 42.3492 83.5456C46.4908 83.7683 50.0746 80.6791 50.3446 76.6589L52.7309 76.7881C52.5655 80.8119 55.7982 84.267 59.9382 84.4905C64.1277 84.7145 67.7186 81.584 67.9387 77.5091C67.9614 77.1969 68.1057 76.906 68.3406 76.6991C68.5755 76.4922 68.8823 76.3856 69.1949 76.4025C69.5075 76.4193 69.801 76.5582 70.0123 76.7892C70.2236 77.0201 70.3359 77.3248 70.3249 77.6377C70.057 82.563 66.0968 86.4482 61.2145 86.8564Z" fill="black"/>
<path d="M57.2205 94.9575C56.9594 94.9796 56.6983 94.9152 56.4773 94.7743C56.2564 94.6334 56.0879 94.4238 55.9977 94.1777C55.9076 93.9317 55.9009 93.6628 55.9785 93.4126C56.0562 93.1623 56.2139 92.9445 56.4275 92.7926C60.1607 90.1374 62.0886 85.0657 62.1078 85.014C62.2184 84.7169 62.4425 84.476 62.7308 84.3441C63.019 84.2122 63.3479 84.2003 63.645 84.3109C63.942 84.4215 64.183 84.6456 64.3149 84.9338C64.4467 85.2221 64.4586 85.551 64.348 85.848C64.2605 86.0833 62.1551 91.6517 57.8125 94.7401C57.6383 94.8644 57.4338 94.9395 57.2205 94.9575Z" fill="black"/>
<path d="M44.0085 94.2287C43.8435 94.2428 43.6774 94.2223 43.5208 94.1686C43.3642 94.1148 43.2205 94.029 43.0989 93.9166C39.3831 90.4883 37.8621 84.7454 37.7988 84.5022C37.7192 84.1954 37.7647 83.8695 37.9253 83.5963C38.0859 83.3231 38.3485 83.1248 38.6553 83.0452C38.9621 82.9656 39.2879 83.0111 39.5612 83.1717C39.8344 83.3323 40.0326 83.5949 40.1123 83.9017C40.1261 83.9547 41.5272 89.2147 44.719 92.1596C44.8897 92.3168 45.011 92.5203 45.0679 92.7452C45.1248 92.9702 45.115 93.2068 45.0397 93.4263C44.9643 93.6457 44.8267 93.8385 44.6435 93.981C44.4604 94.1235 44.2398 94.2096 44.0085 94.2287Z" fill="black"/>
<path d="M51.2214 99.8084C50.8888 99.8361 50.5546 99.8408 50.2213 99.8225C46.1754 99.6048 43.0638 96.0912 43.2847 91.9909L43.6553 85.1521C43.6612 84.9936 43.6986 84.8378 43.7653 84.6939C43.832 84.55 43.9267 84.4208 44.0439 84.3139C44.1611 84.2069 44.2984 84.1244 44.4478 84.0711C44.5972 84.0177 44.7557 83.9947 44.9141 84.0033C45.0725 84.0118 45.2276 84.0519 45.3704 84.121C45.5132 84.1901 45.6408 84.287 45.7457 84.406C45.8506 84.5249 45.9309 84.6636 45.9816 84.8139C46.0324 84.9642 46.0528 85.123 46.0416 85.2813L45.6709 92.1194C45.5214 94.9038 47.6204 97.2893 50.3498 97.4363C51.0006 97.4703 51.6516 97.3737 52.2644 97.1521C52.8772 96.9305 53.4395 96.5884 53.918 96.1461C54.9096 95.2452 55.5044 93.9884 55.5724 92.6504L55.9445 85.745C55.9672 85.4327 56.1115 85.1419 56.3464 84.9349C56.5813 84.728 56.8881 84.6215 57.2007 84.6384C57.5133 84.6552 57.8068 84.794 58.0181 85.025C58.2294 85.256 58.3417 85.5607 58.3307 85.8735L57.9588 92.7819C57.858 94.746 56.9842 96.5905 55.5282 97.9127C54.3426 99.0048 52.8275 99.6717 51.2214 99.8084Z" fill="black"/>
<path d="M60.5664 69.1731C60.3798 72.6397 56.5893 77.1522 51.5239 76.8795C45.6273 76.5614 42.3382 71.9813 42.5255 68.5152C42.7128 65.0491 45.6101 64.4229 51.5068 64.7403C57.4034 65.0577 60.7532 65.7071 60.5664 69.1731Z" fill="black"/>
<path d="M55.5174 68.0841C55.5564 67.36 53.8505 66.6795 51.7073 66.5641C49.5641 66.4488 47.7951 66.9423 47.7561 67.6664C47.7171 68.3905 49.423 69.071 51.5662 69.1864C53.7094 69.3017 55.4784 68.8082 55.5174 68.0841Z" fill="white"/>
<path d="M52.3365 78.8322C52.3768 79.885 52.3207 80.9328 52.2462 81.9792C52.1717 83.0256 52.0399 84.0698 51.9092 85.1132C51.6405 87.1972 51.3215 89.2854 50.8748 91.3613C50.8685 91.3925 50.8512 91.4204 50.826 91.4399C50.8009 91.4594 50.7695 91.4692 50.7377 91.4675C50.706 91.4658 50.6758 91.4527 50.6529 91.4306C50.6299 91.4086 50.6157 91.379 50.6127 91.3473C50.3919 89.2341 50.2982 87.1274 50.2555 85.0241C50.2382 83.9724 50.2186 82.9209 50.257 81.8722C50.2953 80.8235 50.3509 79.7758 50.504 78.7334C50.5369 78.5054 50.6539 78.2981 50.832 78.1521C51.01 78.006 51.2363 77.9319 51.4663 77.9443C51.6962 77.9567 51.9132 78.0547 52.0746 78.2189C52.2359 78.3832 52.33 78.602 52.3382 78.8321L52.3365 78.8322Z" fill="black"/>
</svg>
