<svg width="1440" height="699" viewBox="0 0 1440 699" fill="none" xmlns="http://www.w3.org/2000/svg">
<path d="M413.5 448.5C413.5 586.572 301.794 698.5 164 698.5C26.2059 698.5 -85.5 586.572 -85.5 448.5C-85.5 310.428 26.2059 198.5 164 198.5C301.794 198.5 413.5 310.428 413.5 448.5Z" stroke="#E3E6E9"/>
<circle cx="160" cy="64" r="35" fill="#FAB8C4"/>
<circle cx="1032" cy="378" r="20" fill="#FFDC60"/>
<path d="M1248.59 473.885C1242.18 470.751 1238.1 463.816 1236.12 454.133C1234.14 444.442 1234.25 431.905 1236.29 417.399C1240.38 388.381 1252.23 351.366 1270.89 313.221C1289.54 275.076 1311.47 242.986 1331.86 221.941C1342.05 211.421 1351.89 203.64 1360.75 199.251C1369.61 194.866 1377.58 193.827 1383.99 196.961C1390.41 200.096 1394.83 207.715 1397.37 218.286C1399.92 228.881 1400.61 242.561 1399.46 258.012C1397.17 288.919 1387.5 327.013 1370.44 361.898C1356.72 389.955 1332.59 420.977 1308.79 443.468C1296.89 454.714 1285.05 463.846 1274.61 469.409C1269.39 472.191 1264.5 474.09 1260.12 474.907C1255.73 475.724 1251.82 475.464 1248.59 473.885Z" fill="white" stroke="#1A1A1F"/>
<path d="M1255.43 475.653L1385.37 196.699L1546.3 224.117V475.653H1255.43Z" fill="#F8F1FD"/>
<path d="M1248.59 473.885C1242.18 470.751 1238.1 463.816 1236.12 454.133C1234.14 444.442 1234.25 431.905 1236.29 417.399C1240.38 388.381 1252.23 351.366 1270.89 313.221C1289.54 275.076 1311.47 242.986 1331.86 221.941C1342.05 211.421 1351.89 203.64 1360.75 199.251C1369.61 194.866 1377.58 193.827 1383.99 196.961C1390.41 200.096 1394.83 207.715 1397.37 218.286C1399.92 228.881 1400.61 242.561 1399.46 258.012C1397.17 288.919 1387.5 327.013 1370.44 361.898C1356.72 389.955 1332.59 420.977 1308.79 443.468C1296.89 454.714 1285.05 463.846 1274.61 469.409C1269.39 472.191 1264.5 474.09 1260.12 474.907C1255.73 475.724 1251.82 475.464 1248.59 473.885Z" fill="white" stroke="#7B40E4"/>
<mask id="mask0_99295_2368" style="mask-type:alpha" maskUnits="userSpaceOnUse" x="998" y="53" width="402" height="422">
<path d="M1201 71.6963C730.699 330.399 1223.98 461.294 1248.81 473.435C1273.64 485.575 1342.61 417.664 1369.99 361.678C1404.05 292.021 1408.6 209.549 1383.77 197.409C1358.94 185.269 1238.27 -4.52609 1201 71.6963Z" fill="white"/>
</mask>
<g mask="url(#mask0_99295_2368)">
<path d="M1237.67 208.303C1257.49 197.855 1265.97 174.975 1256.61 157.197C1247.24 139.422 1222.63 131.866 1203.75 143.927C1197.44 147.953 1186.76 175.31 1188.31 192.016C1190.16 212.023 1217.84 218.751 1237.67 208.303Z" fill="#1A1A1F"/>
<path d="M1350.38 276.053C1350.48 276.102 1350.59 276.143 1350.69 276.195C1371.25 286.672 1397.28 286.868 1412.89 283.477C1418.43 298.324 1412.19 318.074 1380.1 328.731C1335.56 343.524 1299.66 326.361 1292.81 299.584C1313.46 301.635 1338.1 291.207 1350.38 276.053Z" fill="#1A1A1F"/>
<path d="M1424.49 255.47C1421.22 245.618 1415.12 232.603 1404.95 219.363C1399.4 212.139 1406.3 207.465 1413.63 213.079C1425.5 222.178 1437.19 233.724 1444.42 251.795C1440.95 257.782 1431.89 250.198 1424.49 255.47Z" fill="#1A1A1F"/>
<path d="M1294.95 349.334C1297.85 348.799 1300.71 348.58 1303.5 348.59C1306.46 365.985 1300.79 386.987 1293.07 405.168C1278.56 403.937 1266.76 395.564 1264.53 383.531C1261.71 368.278 1275.33 352.967 1294.95 349.334Z" fill="#1A1A1F"/>
<path d="M1225.59 439.474C1229.45 439.474 1233.61 437.693 1235.85 433.22C1238.98 426.959 1244.85 414.015 1249.05 397.612C1249.26 396.775 1248.76 395.924 1247.92 395.708C1247.07 395.496 1225.77 393.457 1233.05 395.708C1228.93 411.822 1232.27 424.209 1229.2 430.354C1227.07 434.618 1226.5 436.988 1223.08 435.993C1220.22 435.165 1217.31 432.759 1217.74 428.498C1219.12 414.672 1216.81 403.96 1214.36 392.62C1212.52 384.056 1210.61 375.199 1210.08 364.236C1210.04 363.373 1209.27 362.677 1208.45 362.748C1207.58 362.787 1206.92 363.521 1206.96 364.384C1207.49 375.608 1209.43 384.591 1211.3 393.277C1213.69 404.369 1215.96 414.849 1214.62 428.183C1214.11 433.275 1217.09 437.52 1222.21 439.001C1223.27 439.307 1224.42 439.474 1225.59 439.474Z" fill="white"/>
<path d="M1209.09 366.635C1213.72 381.286 1226.15 390.514 1242.02 395.599C1241.5 401.995 1239.25 407.941 1235.05 412.749C1230.27 418.221 1223.71 421.442 1216.37 422.489C1217.04 402.375 1210.25 389.985 1209.09 366.635Z" fill="#1A1A1F"/>
<path d="M1225.59 439.474C1229.45 439.474 1233.61 437.693 1235.85 433.22C1238.98 426.959 1244.85 414.015 1249.05 397.612C1249.26 396.775 1248.76 395.924 1247.92 395.708C1247.07 395.496 1246.23 396.002 1246.01 396.842C1241.89 412.955 1236.12 425.671 1233.05 431.816C1230.92 436.08 1226.5 436.988 1223.08 435.993C1220.22 435.165 1217.31 432.759 1217.74 428.498C1219.12 414.672 1216.81 403.96 1214.36 392.62C1212.52 384.056 1210.61 375.199 1210.08 364.236C1210.04 363.373 1209.27 362.677 1208.45 362.748C1207.58 362.787 1206.92 363.521 1206.96 364.384C1207.49 375.608 1209.43 384.591 1211.3 393.277C1213.69 404.369 1215.96 414.849 1214.62 428.183C1214.11 433.275 1217.09 437.52 1222.21 439.001C1223.27 439.307 1224.42 439.474 1225.59 439.474Z" fill="#1A1A1F"/>
<path d="M1361.55 431.499C1363.43 431.499 1365.24 431.129 1366.67 430.343C1371.42 427.728 1395.53 406.185 1397.71 382.841L1394.59 382.558C1392.52 404.693 1369.67 425.119 1365.16 427.602C1362.55 429.029 1357.26 428.327 1355.23 426.275C1354.59 425.628 1353.87 424.527 1355.03 422.462C1364.88 405.025 1363.33 385.946 1363.26 385.141L1360.14 385.411C1360.16 385.601 1361.66 404.355 1352.31 420.923C1350.74 423.696 1351 426.446 1353 428.475C1354.92 430.414 1358.33 431.499 1361.55 431.499Z" fill="#1A1A1F"/>
<path d="M1399.02 442.889C1401.95 442.889 1405.47 441.894 1409.4 439.295C1431.9 424.415 1449.86 375.277 1453.59 338.284C1455.77 316.734 1453.04 300.583 1445.91 292.566C1459.68 262.862 1440.1 230.88 1414.33 212.197C1410.19 209.192 1405.7 208.667 1403.42 210.934C1402.68 211.672 1400.55 214.509 1404.42 219.911C1416.47 235.086 1427.26 257.387 1424.69 270.765C1423.95 274.566 1422.12 277.326 1419.25 278.972C1402.7 288.424 1369.61 284.679 1351.07 275.017C1350.31 274.614 1349.36 274.917 1348.96 275.683C1348.56 276.45 1348.86 277.397 1349.62 277.796C1368.92 287.858 1402.88 291.922 1420.8 281.693C1424.51 279.571 1426.85 276.096 1427.76 271.361C1430.52 257.052 1419.37 233.698 1406.92 218.026C1405.16 215.563 1404.99 213.791 1405.63 213.154C1406.43 212.361 1409.16 212.319 1412.49 214.732C1437.48 232.851 1456.5 263.825 1442.63 292.17L1442.14 293.178L1442.93 293.967C1449.95 300.992 1452.63 316.615 1450.48 337.968C1446.8 374.404 1428.72 422.763 1407.67 436.686C1401.45 440.799 1396.76 440.216 1394.45 438.299C1392.63 436.795 1392.13 434.373 1393.14 431.977C1403.35 407.648 1405.94 392.14 1400.85 385.895C1399.41 384.121 1397.92 382.378 1396.45 380.642C1386.25 368.626 1376.61 357.276 1379.26 336.97C1379.38 336.113 1378.77 335.327 1377.91 335.215C1377.05 335.089 1376.27 335.707 1376.16 336.567C1373.33 358.246 1383.87 370.662 1394.06 382.668C1395.53 384.391 1396.99 386.114 1398.42 387.87C1402.6 393.01 1399.7 408.241 1390.25 430.763C1388.71 434.425 1389.58 438.328 1392.45 440.712C1394 441.99 1396.24 442.889 1399.02 442.889Z" fill="#1A1A1F"/>
<path d="M1254.38 400.36C1255.13 400.36 1255.79 399.828 1255.92 399.072C1256.08 398.221 1255.51 397.406 1254.66 397.255C1234.57 393.632 1266.49 388.622 1264.96 361.211C1264.75 357.414 1284.52 316.552 1284.5 308.758C1284.43 278.12 1208.32 256.482 1195.73 243.982C1190.44 238.733 1181.08 231.602 1171.18 224.053C1153.19 210.342 1130.8 193.276 1129.92 184.686C1128.54 171.104 1130.99 133.564 1140.01 125.087C1141.33 123.847 1142.69 123.358 1144.17 123.609C1154.98 125.406 1164.89 127.905 1176.36 130.801C1180.32 131.802 1184.46 132.843 1188.85 133.915C1202.58 137.255 1210 131.76 1217.87 125.947C1223.56 121.744 1229.44 117.399 1238.52 115.148C1262.63 109.167 1287.53 117.412 1306.81 137.764C1322.98 154.837 1332.04 177.974 1327.88 191.582L1327.68 192.206L1327.99 192.783C1343.87 222.301 1353.2 268.479 1350.41 272.56C1341.46 285.578 1322.95 295.79 1304.33 297.974C1290.76 299.565 1314.62 256.219 1306.81 249.152C1296.22 239.558 1265.77 269.284 1273.61 253.229C1275.73 248.884 1278.14 243.957 1280.38 238.684C1281.74 235.483 1283.14 232.323 1284.5 229.273C1289.27 218.561 1293.39 209.312 1292.82 204.113C1292.72 203.253 1291.97 202.629 1291.09 202.728C1290.23 202.822 1289.61 203.598 1289.7 204.455C1290.18 208.809 1286.03 218.13 1281.64 227.998C1280.27 231.064 1278.86 234.243 1277.5 237.46C1275.29 242.659 1273.01 247.332 1270.8 251.857C1262.94 267.931 1256.74 280.634 1269.09 291.803C1277.58 299.485 1290.22 302.773 1304.69 301.085C1324.16 298.802 1343.57 288.051 1352.99 274.334C1357.01 268.472 1346.21 220.4 1331.05 191.865C1335.16 176.982 1326.01 153.474 1309.09 135.609C1289.01 114.414 1263.02 105.847 1237.76 112.108C1228.08 114.51 1221.66 119.248 1216.01 123.429C1208.12 129.261 1201.88 133.867 1189.59 130.872C1185.21 129.802 1181.08 128.762 1177.13 127.764C1165.59 124.852 1155.62 122.337 1144.68 120.52C1142.21 120.111 1139.92 120.881 1137.87 122.804C1127.45 132.588 1125.57 172.85 1126.8 185.002C1127.82 194.944 1148.9 211.009 1169.28 226.545C1179.1 234.03 1188.38 241.103 1193.52 246.208C1205.19 257.789 1205.32 310.235 1205.38 338.41C1205.4 346.249 1205.42 352.442 1205.63 356.323C1206.92 379.297 1224.13 394.933 1254.1 400.337C1254.2 400.353 1254.29 400.36 1254.38 400.36Z" fill="white"/>
<path d="M1352.42 260.615C1341.76 270.773 1327 273.881 1315.52 268.522C1299.27 260.93 1294.07 237.677 1303.92 216.585C1309.8 203.989 1319.72 195.054 1330.22 191.486C1339.54 209.644 1350.85 243.935 1352.42 260.615Z" fill="#1A1A1F"/>
<path d="M1254.38 400.36C1255.13 400.36 1255.79 399.828 1255.92 399.072C1256.08 398.221 1255.51 397.407 1254.66 397.255C1234.57 393.632 1210.29 383.558 1208.76 356.146C1208.55 352.349 1208.53 346.194 1208.51 338.4C1208.44 307.762 1208.32 256.482 1195.73 243.982C1190.44 238.733 1181.08 231.602 1171.18 224.053C1153.19 210.342 1130.8 193.276 1129.92 184.686C1128.54 171.104 1130.99 133.564 1140.01 125.087C1141.33 123.847 1142.69 123.358 1144.17 123.609C1154.98 125.406 1164.89 127.905 1176.36 130.801C1180.32 131.802 1184.46 132.843 1188.85 133.915C1202.58 137.255 1210 131.76 1217.87 125.947C1223.56 121.744 1229.44 117.399 1238.52 115.148C1262.63 109.167 1287.53 117.412 1306.81 137.764C1322.98 154.837 1332.04 177.974 1327.88 191.582L1327.68 192.206L1327.99 192.783C1343.87 222.301 1353.2 268.479 1350.41 272.56C1341.46 285.578 1322.95 295.79 1304.33 297.974C1290.76 299.565 1279 296.55 1271.19 289.484C1260.59 279.89 1265.77 269.284 1273.61 253.229C1275.73 248.884 1278.14 243.957 1280.38 238.684C1281.74 235.483 1283.14 232.323 1284.5 229.273C1289.27 218.561 1293.39 209.312 1292.82 204.113C1292.72 203.253 1291.97 202.629 1291.09 202.728C1290.23 202.822 1289.61 203.598 1289.7 204.455C1290.18 208.809 1286.03 218.13 1281.64 227.998C1280.27 231.064 1278.86 234.243 1277.5 237.46C1275.29 242.659 1273.01 247.332 1270.8 251.857C1262.94 267.931 1256.74 280.634 1269.09 291.803C1277.58 299.485 1290.22 302.773 1304.69 301.085C1324.16 298.802 1343.57 288.051 1352.99 274.334C1357.01 268.472 1346.21 220.4 1331.05 191.865C1335.16 176.982 1326.01 153.474 1309.09 135.609C1289.01 114.414 1263.02 105.847 1237.76 112.108C1228.08 114.51 1221.66 119.248 1216.01 123.429C1208.12 129.261 1201.88 133.867 1189.59 130.872C1185.21 129.802 1181.08 128.762 1177.13 127.764C1165.59 124.852 1155.62 122.337 1144.68 120.52C1142.21 120.111 1139.92 120.881 1137.87 122.804C1127.45 132.588 1125.57 172.85 1126.8 185.002C1127.82 194.944 1148.9 211.009 1169.28 226.545C1179.1 234.03 1188.38 241.103 1193.52 246.208C1205.19 257.789 1205.32 310.235 1205.38 338.41C1205.4 346.249 1205.42 352.442 1205.63 356.323C1206.92 379.297 1224.13 394.933 1254.1 400.337C1254.2 400.353 1254.29 400.36 1254.38 400.36Z" fill="#1A1A1F"/>
<path d="M1295.27 401.584C1295.31 401.584 1295.35 401.581 1295.4 401.578C1333.14 398.557 1375 385.522 1388.73 372.527C1389.36 371.928 1389.38 370.939 1388.79 370.311C1388.19 369.68 1387.2 369.654 1386.57 370.25C1373.29 382.83 1332.28 395.484 1295.14 398.46C1294.28 398.528 1293.64 399.281 1293.71 400.144C1293.77 400.963 1294.46 401.584 1295.27 401.584Z" fill="#1A1A1F"/>
<path d="M1213.66 126.795C1208.97 123.832 1199.65 130.183 1199.6 133.249C1199.56 136.618 1206.02 137.971 1209.88 135.236C1213.82 132.451 1217.16 129.008 1213.66 126.795Z" fill="#1A1A1F"/>
<path d="M1154.19 124.084C1157.17 126.66 1158.52 139.556 1155.02 142.229C1148.62 147.118 1133.6 144.513 1133.19 140.091C1132 127.05 1143.12 114.528 1154.19 124.084Z" fill="#1A1A1F"/>
<path d="M1179.59 208.771C1180.24 208.771 1180.84 208.372 1181.07 207.731C1181.36 206.916 1180.93 206.02 1180.12 205.731C1178 204.974 1128.34 186.986 1130.63 166.332C1130.73 165.472 1130.11 164.699 1129.25 164.602C1128.38 164.519 1127.61 165.127 1127.52 165.987C1124.99 188.687 1173.52 206.7 1179.07 208.681C1179.24 208.742 1179.42 208.771 1179.59 208.771Z" fill="#1A1A1F"/>
<path d="M1259.82 450.672C1262.86 450.672 1266.05 449.793 1268.78 447.741C1278.21 440.668 1316.17 378.226 1302.95 340.089C1302.66 339.271 1301.77 338.84 1300.95 339.123C1300.13 339.407 1299.7 340.295 1299.99 341.114C1312.97 378.57 1273.74 440.108 1266.9 445.239C1262.5 448.537 1256.43 447.96 1253.32 445.541C1251.77 444.324 1250.22 442.124 1251.72 438.565C1255.59 429.393 1259.55 388.838 1252.71 373.585C1252.36 372.802 1251.43 372.444 1250.64 372.799C1249.85 373.15 1249.5 374.077 1249.85 374.866C1255.93 388.435 1252.91 427.663 1248.83 437.351C1247.12 441.429 1248.07 445.416 1251.4 448.008C1253.52 449.664 1256.58 450.672 1259.82 450.672Z" fill="#1A1A1F"/>
<path d="M1220.66 160.904C1216.69 163.854 1215.46 169.046 1217.91 172.499C1220.35 175.951 1225.55 176.357 1229.52 173.407C1233.49 170.457 1234.72 165.268 1232.27 161.816C1229.82 158.363 1224.62 157.954 1220.66 160.904Z" fill="white"/>
<path d="M1172.33 429.956C1177.43 429.956 1180.41 429.206 1180.68 429.135C1181.33 428.964 1181.72 428.294 1181.55 427.644C1181.38 426.993 1180.72 426.594 1180.06 426.771C1179.92 426.803 1166.92 430.027 1147.63 422.359C1158.08 412.983 1188.39 425.998 1188.7 426.133L1192.34 427.718L1190.23 424.362C1190.1 424.159 1178.2 405.147 1172.81 385.926C1193.92 401.031 1197.09 424.429 1197.13 424.674C1197.21 425.341 1197.83 425.814 1198.49 425.734C1199.16 425.65 1199.64 425.041 1199.55 424.368C1199.52 424.104 1195.93 397.636 1171.47 382.068L1168.91 380.435L1169.62 383.385C1173.48 399.347 1182.39 415.801 1186.28 422.523C1177.26 419.093 1153.06 411.25 1144.57 422.062L1143.58 423.318L1145.06 423.943C1156.62 428.829 1166.07 429.956 1172.33 429.956Z" fill="#7B40E4"/>
</g>
</svg>
