<svg width="300" height="48" viewBox="0 0 300 48" fill="none" xmlns="http://www.w3.org/2000/svg">
<path d="M65.3438 38C64.7812 38 64.2891 37.8008 63.8672 37.4023C63.4688 36.9805 63.2695 36.4883 63.2695 35.9258V13.4258C63.2695 12.8633 63.4688 12.3828 63.8672 11.9844C64.2891 11.5625 64.7812 11.3516 65.3438 11.3516H66.5391C67.1016 11.3516 67.582 11.5625 67.9805 11.9844C68.4023 12.3828 68.6133 12.8633 68.6133 13.4258V21.582C68.6133 21.7461 68.6953 21.8281 68.8594 21.8281H78.4219C78.5859 21.8281 78.668 21.7461 78.668 21.582V13.4258C78.668 12.8633 78.8672 12.3828 79.2656 11.9844C79.6875 11.5625 80.1797 11.3516 80.7422 11.3516H81.9023C82.4648 11.3516 82.9453 11.5625 83.3438 11.9844C83.7656 12.3828 83.9766 12.8633 83.9766 13.4258V35.9258C83.9766 36.4883 83.7656 36.9805 83.3438 37.4023C82.9453 37.8008 82.4648 38 81.9023 38H80.7422C80.1797 38 79.6875 37.8008 79.2656 37.4023C78.8672 36.9805 78.668 36.4883 78.668 35.9258V26.75C78.668 26.5625 78.5859 26.4688 78.4219 26.4688H68.8594C68.6953 26.4688 68.6133 26.5625 68.6133 26.75V35.9258C68.6133 36.4883 68.4023 36.9805 67.9805 37.4023C67.582 37.8008 67.1016 38 66.5391 38H65.3438ZM95.5703 38.4922C91.4453 38.4922 89.3828 35.8086 89.3828 30.4414V19.9297C89.3828 19.3438 89.582 18.8516 89.9805 18.4531C90.3789 18.0547 90.8711 17.8555 91.457 17.8555H92.582C93.168 17.8555 93.6602 18.0547 94.0586 18.4531C94.457 18.8516 94.6562 19.3438 94.6562 19.9297V29.7734C94.6562 31.2969 94.8789 32.375 95.3242 33.0078C95.7695 33.6406 96.4844 33.957 97.4688 33.957C98.2656 33.957 98.957 33.7812 99.543 33.4297C100.129 33.0781 100.75 32.4805 101.406 31.6367C101.523 31.5195 101.582 31.3672 101.582 31.1797V19.9297C101.582 19.3438 101.781 18.8516 102.18 18.4531C102.578 18.0547 103.07 17.8555 103.656 17.8555H104.781C105.367 17.8555 105.859 18.0547 106.258 18.4531C106.656 18.8516 106.855 19.3438 106.855 19.9297V35.9258C106.855 36.4883 106.656 36.9805 106.258 37.4023C105.859 37.8008 105.367 38 104.781 38H104.641C104.031 38 103.504 37.8125 103.059 37.4375C102.613 37.0391 102.355 36.5469 102.285 35.9609L102.18 35.1875C102.156 35.1406 102.121 35.1172 102.074 35.1172C102.027 35.1172 101.992 35.1406 101.969 35.1875C100.07 37.3906 97.9375 38.4922 95.5703 38.4922ZM117.781 38.4922C115.766 38.4922 113.762 37.9297 111.77 36.8047C111.301 36.5469 111.02 36.125 110.926 35.5391C110.902 35.4219 110.891 35.3164 110.891 35.2227C110.891 34.7773 111.031 34.3672 111.312 33.9922C111.641 33.5469 112.086 33.2773 112.648 33.1836C112.789 33.1836 112.918 33.1836 113.035 33.1836C113.457 33.1836 113.844 33.2891 114.195 33.5C115.461 34.2031 116.703 34.5547 117.922 34.5547C118.883 34.5547 119.609 34.3672 120.102 33.9922C120.594 33.5938 120.84 33.0664 120.84 32.4102C120.84 32.1523 120.758 31.9062 120.594 31.6719C120.453 31.4141 120.289 31.2031 120.102 31.0391C119.914 30.875 119.621 30.6992 119.223 30.5117C118.824 30.3008 118.496 30.1484 118.238 30.0547C117.98 29.9375 117.594 29.7734 117.078 29.5625C116.867 29.4922 116.715 29.4336 116.621 29.3867C115.871 29.1055 115.215 28.8242 114.652 28.543C114.09 28.2383 113.516 27.8516 112.93 27.3828C112.344 26.9141 111.887 26.3516 111.559 25.6953C111.254 25.0391 111.102 24.3125 111.102 23.5156C111.102 21.6875 111.781 20.1992 113.141 19.0508C114.523 17.9023 116.34 17.3281 118.59 17.3281C120.395 17.3281 122.129 17.7969 123.793 18.7344C124.285 18.9922 124.566 19.3906 124.637 19.9297C124.66 20.0469 124.672 20.1641 124.672 20.2812C124.672 20.7031 124.543 21.0781 124.285 21.4062C123.957 21.8516 123.512 22.1211 122.949 22.2148C122.809 22.2383 122.656 22.25 122.492 22.25C122.117 22.25 121.754 22.168 121.402 22.0039C120.465 21.5352 119.574 21.3008 118.73 21.3008C117.863 21.3008 117.207 21.4766 116.762 21.8281C116.316 22.1797 116.094 22.6484 116.094 23.2344C116.094 23.3984 116.105 23.5508 116.129 23.6914C116.176 23.832 116.246 23.9727 116.34 24.1133C116.457 24.2305 116.562 24.3477 116.656 24.4648C116.75 24.5586 116.891 24.6641 117.078 24.7812C117.289 24.875 117.453 24.957 117.57 25.0273C117.711 25.0977 117.91 25.1914 118.168 25.3086C118.449 25.4023 118.66 25.4844 118.801 25.5547C118.941 25.6016 119.164 25.6836 119.469 25.8008C119.797 25.918 120.031 26 120.172 26.0469C120.828 26.3047 121.367 26.5273 121.789 26.7148C122.234 26.9023 122.727 27.1836 123.266 27.5586C123.828 27.9102 124.273 28.2852 124.602 28.6836C124.93 29.0586 125.211 29.5508 125.445 30.1602C125.68 30.7461 125.797 31.4023 125.797 32.1289C125.797 33.9805 125.094 35.5039 123.688 36.6992C122.281 37.8945 120.312 38.4922 117.781 38.4922ZM131.379 38C130.793 38 130.301 37.8008 129.902 37.4023C129.504 36.9805 129.305 36.4883 129.305 35.9258V11.3516C129.305 10.7656 129.504 10.2734 129.902 9.875C130.301 9.47656 130.793 9.27734 131.379 9.27734H132.363C132.949 9.27734 133.441 9.47656 133.84 9.875C134.238 10.2734 134.438 10.7656 134.438 11.3516V26.4688C134.438 26.5156 134.461 26.5391 134.508 26.5391C134.555 26.5391 134.602 26.5273 134.648 26.5039L140.273 19.4727C141.141 18.3945 142.266 17.8555 143.648 17.8555H145.266C145.664 17.8555 145.945 18.043 146.109 18.418C146.297 18.7695 146.262 19.1094 146.004 19.4375L140.52 25.8711C140.402 26.0117 140.391 26.1523 140.484 26.293L146.883 36.2422C147 36.4531 147.059 36.6641 147.059 36.875C147.059 37.0391 147.012 37.2148 146.918 37.4023C146.684 37.8008 146.344 38 145.898 38H144.352C143.695 38 143.086 37.8477 142.523 37.543C141.984 37.2148 141.551 36.7695 141.223 36.207L137.496 29.8789C137.402 29.7148 137.297 29.7031 137.18 29.8438L134.613 32.7617C134.496 32.9023 134.438 33.0547 134.438 33.2188V35.9258C134.438 36.4883 134.238 36.9805 133.84 37.4023C133.441 37.8008 132.949 38 132.363 38H131.379ZM152.641 38C152.055 38 151.562 37.8008 151.164 37.4023C150.766 36.9805 150.566 36.4883 150.566 35.9258V19.9297C150.566 19.3438 150.766 18.8516 151.164 18.4531C151.562 18.0547 152.055 17.8555 152.641 17.8555H153.73C154.316 17.8555 154.809 18.0547 155.207 18.4531C155.605 18.8516 155.805 19.3438 155.805 19.9297V35.9258C155.805 36.4883 155.605 36.9805 155.207 37.4023C154.809 37.8008 154.316 38 153.73 38H152.641ZM153.238 14.5859C152.324 14.5859 151.562 14.3164 150.953 13.7773C150.367 13.2383 150.074 12.5469 150.074 11.7031C150.074 10.8594 150.367 10.1797 150.953 9.66406C151.539 9.125 152.301 8.85547 153.238 8.85547C154.129 8.85547 154.867 9.125 155.453 9.66406C156.062 10.1797 156.367 10.8594 156.367 11.7031C156.367 12.5469 156.062 13.2383 155.453 13.7773C154.867 14.3164 154.129 14.5859 153.238 14.5859ZM171.152 38C170.59 38 170.098 37.8008 169.676 37.4023C169.277 36.9805 169.078 36.4883 169.078 35.9258V13.4258C169.078 12.8633 169.277 12.3828 169.676 11.9844C170.098 11.5625 170.59 11.3516 171.152 11.3516H183.422C184.008 11.3516 184.5 11.5625 184.898 11.9844C185.297 12.3828 185.496 12.8633 185.496 13.4258V13.707C185.496 14.293 185.297 14.7852 184.898 15.1836C184.5 15.582 184.008 15.7812 183.422 15.7812H174.668C174.504 15.7812 174.422 15.875 174.422 16.0625V22.4609C174.422 22.6484 174.504 22.7422 174.668 22.7422H181.805C182.367 22.7422 182.848 22.9414 183.246 23.3398C183.668 23.7383 183.879 24.2305 183.879 24.8164V25.1328C183.879 25.6953 183.668 26.1875 183.246 26.6094C182.848 27.0078 182.367 27.207 181.805 27.207H174.668C174.504 27.207 174.422 27.2891 174.422 27.4531V35.9258C174.422 36.4883 174.211 36.9805 173.789 37.4023C173.391 37.8008 172.91 38 172.348 38H171.152ZM191.289 38C190.703 38 190.211 37.8008 189.812 37.4023C189.414 36.9805 189.215 36.4883 189.215 35.9258V19.9297C189.215 19.3438 189.414 18.8516 189.812 18.4531C190.211 18.0547 190.703 17.8555 191.289 17.8555H192.379C192.965 17.8555 193.457 18.0547 193.855 18.4531C194.254 18.8516 194.453 19.3438 194.453 19.9297V35.9258C194.453 36.4883 194.254 36.9805 193.855 37.4023C193.457 37.8008 192.965 38 192.379 38H191.289ZM191.887 14.5859C190.973 14.5859 190.211 14.3164 189.602 13.7773C189.016 13.2383 188.723 12.5469 188.723 11.7031C188.723 10.8594 189.016 10.1797 189.602 9.66406C190.188 9.125 190.949 8.85547 191.887 8.85547C192.777 8.85547 193.516 9.125 194.102 9.66406C194.711 10.1797 195.016 10.8594 195.016 11.7031C195.016 12.5469 194.711 13.2383 194.102 13.7773C193.516 14.3164 192.777 14.5859 191.887 14.5859ZM201.723 38C201.137 38 200.645 37.8008 200.246 37.4023C199.848 36.9805 199.648 36.4883 199.648 35.9258V19.9297C199.648 19.3438 199.848 18.8516 200.246 18.4531C200.645 18.0547 201.137 17.8555 201.723 17.8555H201.898C202.484 17.8555 203 18.0547 203.445 18.4531C203.891 18.8281 204.16 19.3086 204.254 19.8945L204.324 20.4219C204.324 20.4688 204.348 20.4922 204.395 20.4922C204.441 20.4922 204.488 20.4805 204.535 20.457C206.668 18.3711 208.824 17.3281 211.004 17.3281C215.176 17.3281 217.262 20.0352 217.262 25.4492V35.9258C217.262 36.4883 217.051 36.9805 216.629 37.4023C216.23 37.8008 215.75 38 215.188 38H214.027C213.465 38 212.973 37.8008 212.551 37.4023C212.152 36.9805 211.953 36.4883 211.953 35.9258V26.082C211.953 24.5586 211.73 23.4805 211.285 22.8477C210.84 22.1914 210.113 21.8633 209.105 21.8633C208.355 21.8633 207.688 22.0273 207.102 22.3555C206.539 22.6836 205.871 23.2227 205.098 23.9727C204.957 24.0898 204.887 24.2305 204.887 24.3945V35.9258C204.887 36.4883 204.688 36.9805 204.289 37.4023C203.891 37.8008 203.398 38 202.812 38H201.723ZM227.168 38.4922C225.387 38.4922 223.945 37.9297 222.844 36.8047C221.742 35.6797 221.191 34.25 221.191 32.5156C221.191 30.3828 222.094 28.7305 223.898 27.5586C225.703 26.3633 228.586 25.543 232.547 25.0977C232.711 25.0742 232.793 24.9805 232.793 24.8164C232.629 22.6602 231.492 21.582 229.383 21.582C228.234 21.582 226.969 21.9102 225.586 22.5664C225.281 22.707 224.977 22.7773 224.672 22.7773C224.461 22.7773 224.25 22.7422 224.039 22.6719C223.523 22.5312 223.137 22.2266 222.879 21.7578C222.691 21.4297 222.598 21.1016 222.598 20.7734C222.598 20.5859 222.633 20.3984 222.703 20.2109C222.844 19.6719 223.16 19.2734 223.652 19.0156C225.926 17.8906 228.152 17.3281 230.332 17.3281C232.887 17.3281 234.809 18.0898 236.098 19.6133C237.41 21.1133 238.066 23.3164 238.066 26.2227V35.9258C238.066 36.4883 237.867 36.9805 237.469 37.4023C237.07 37.8008 236.578 38 235.992 38H235.711C235.148 38 234.645 37.8242 234.199 37.4727C233.777 37.0977 233.52 36.6289 233.426 36.0664L233.391 35.8906C233.367 35.8672 233.332 35.8555 233.285 35.8555C233.262 35.8555 233.238 35.8672 233.215 35.8906C231.152 37.625 229.137 38.4922 227.168 38.4922ZM228.891 34.3789C230.133 34.3789 231.375 33.7695 232.617 32.5508C232.734 32.4336 232.793 32.293 232.793 32.1289V28.5781C232.793 28.4141 232.723 28.332 232.582 28.332C232.559 28.332 232.535 28.3438 232.512 28.3672C230.285 28.6719 228.68 29.1406 227.695 29.7734C226.734 30.3828 226.254 31.1562 226.254 32.0938C226.254 32.8672 226.488 33.4414 226.957 33.8164C227.449 34.1914 228.094 34.3789 228.891 34.3789ZM245.055 38C244.469 38 243.977 37.8008 243.578 37.4023C243.18 36.9805 242.98 36.4883 242.98 35.9258V19.9297C242.98 19.3438 243.18 18.8516 243.578 18.4531C243.977 18.0547 244.469 17.8555 245.055 17.8555H245.23C245.816 17.8555 246.332 18.0547 246.777 18.4531C247.223 18.8281 247.492 19.3086 247.586 19.8945L247.656 20.4219C247.656 20.4688 247.68 20.4922 247.727 20.4922C247.773 20.4922 247.82 20.4805 247.867 20.457C250 18.3711 252.156 17.3281 254.336 17.3281C258.508 17.3281 260.594 20.0352 260.594 25.4492V35.9258C260.594 36.4883 260.383 36.9805 259.961 37.4023C259.562 37.8008 259.082 38 258.52 38H257.359C256.797 38 256.305 37.8008 255.883 37.4023C255.484 36.9805 255.285 36.4883 255.285 35.9258V26.082C255.285 24.5586 255.062 23.4805 254.617 22.8477C254.172 22.1914 253.445 21.8633 252.438 21.8633C251.688 21.8633 251.02 22.0273 250.434 22.3555C249.871 22.6836 249.203 23.2227 248.43 23.9727C248.289 24.0898 248.219 24.2305 248.219 24.3945V35.9258C248.219 36.4883 248.02 36.9805 247.621 37.4023C247.223 37.8008 246.73 38 246.145 38H245.055ZM274.121 38.4922C271.238 38.4922 268.871 37.5547 267.02 35.6797C265.191 33.7812 264.277 31.2031 264.277 27.9453C264.277 25.7891 264.758 23.8906 265.719 22.25C266.68 20.6094 267.934 19.3789 269.48 18.5586C271.027 17.7383 272.727 17.3281 274.578 17.3281C276.078 17.3281 277.461 17.6797 278.727 18.3828C279.242 18.6641 279.535 19.0977 279.605 19.6836C279.629 19.7773 279.641 19.8828 279.641 20C279.641 20.4453 279.5 20.8555 279.219 21.2305L279.148 21.3008C278.844 21.7461 278.398 22.0039 277.812 22.0742C277.648 22.1211 277.484 22.1445 277.32 22.1445C276.922 22.1445 276.535 22.0625 276.16 21.8984C275.738 21.7344 275.293 21.6523 274.824 21.6523C273.301 21.6523 272.059 22.2266 271.098 23.375C270.16 24.5234 269.691 26.0469 269.691 27.9453C269.691 29.8203 270.148 31.332 271.062 32.4805C272 33.6055 273.207 34.168 274.684 34.168C275.41 34.168 276.148 34.0039 276.898 33.6758C277.227 33.5117 277.566 33.4297 277.918 33.4297C278.082 33.4297 278.258 33.4414 278.445 33.4648C278.984 33.582 279.383 33.8633 279.641 34.3086C279.875 34.6836 279.992 35.0703 279.992 35.4688C279.992 35.6328 279.98 35.7852 279.957 35.9258C279.84 36.5117 279.535 36.9453 279.043 37.2266C277.52 38.0703 275.879 38.4922 274.121 38.4922ZM291.727 38.4922C288.82 38.4922 286.418 37.543 284.52 35.6445C282.645 33.7461 281.707 31.1797 281.707 27.9453C281.707 26.375 281.965 24.9102 282.48 23.5508C283.02 22.1914 283.723 21.0664 284.59 20.1758C285.48 19.2852 286.488 18.5938 287.613 18.1016C288.738 17.5859 289.898 17.3281 291.094 17.3281C293.789 17.3281 295.863 18.2188 297.316 20C298.793 21.7812 299.531 24.1133 299.531 26.9961C299.531 27.1133 299.531 27.2305 299.531 27.3477C299.508 27.9336 299.262 28.4258 298.793 28.8242C298.348 29.1992 297.82 29.3867 297.211 29.3867H287.121C286.934 29.3867 286.863 29.4805 286.91 29.668C287.145 31.2148 287.754 32.3984 288.738 33.2188C289.723 34.0391 290.953 34.4492 292.43 34.4492C293.414 34.4492 294.375 34.2617 295.312 33.8867C295.594 33.7695 295.875 33.7109 296.156 33.7109C296.367 33.7109 296.566 33.7344 296.754 33.7812C297.27 33.9219 297.645 34.2148 297.879 34.6602C298.043 34.9648 298.125 35.2812 298.125 35.6094C298.125 35.9375 298.043 36.2539 297.879 36.5586C297.715 36.8398 297.48 37.0508 297.176 37.1914C295.395 38.0586 293.578 38.4922 291.727 38.4922ZM286.805 25.6953C286.805 25.8359 286.887 25.9062 287.051 25.9062H294.715C294.902 25.9062 294.996 25.8242 294.996 25.6602C294.949 24.3242 294.609 23.293 293.977 22.5664C293.344 21.8164 292.406 21.4414 291.164 21.4414C290.109 21.4414 289.172 21.8047 288.352 22.5312C287.32 23.4688 286.805 24.5234 286.805 25.6953Z" fill="#9054DB"/>
<path d="M22.0763 45.4609C22.0749 45.8609 22.0751 45.8609 22.0753 45.8609L22.0759 45.8609L22.078 45.8609L22.0854 45.8609L22.1131 45.8608C22.1372 45.8607 22.1724 45.8603 22.2182 45.8596C22.3099 45.8582 22.4439 45.8552 22.6159 45.8488C22.9598 45.8361 23.4559 45.81 24.0685 45.7568C25.293 45.6504 26.9867 45.4349 28.864 44.9983C32.6058 44.128 37.1392 42.365 40.1081 38.7725C43.0915 35.1641 43.3973 30.963 42.9731 27.7001C42.7608 26.0669 42.3646 24.6582 42.0218 23.6577C41.8502 23.157 41.6916 22.7574 41.5753 22.4817C41.5171 22.3438 41.4694 22.2369 41.436 22.1636C41.4292 22.1488 41.4231 22.1354 41.4175 22.1234C41.4155 22.0891 41.4129 22.044 41.4095 21.9887C41.401 21.8501 41.388 21.6474 41.3696 21.3896C41.3329 20.8742 41.2749 20.1383 41.1897 19.2553C41.0192 17.4902 40.7393 15.1322 40.3016 12.7685C39.9455 10.8452 39.4828 8.90644 38.8849 7.27695C38.2935 5.66529 37.545 4.28412 36.5763 3.55558L36.5762 3.5555C36.0578 3.16591 35.538 2.95151 35.0217 2.90054C34.5045 2.84948 34.0203 2.96543 33.5792 3.18951C32.7166 3.6277 32 4.48824 31.432 5.39654C31.4285 5.40159 31.4251 5.40672 31.4219 5.41192C30.8123 6.38794 30.3391 7.4757 30.0194 8.31244C29.8716 8.6994 29.7555 9.0354 29.6732 9.28564C28.6513 8.75384 25.9835 7.50456 23.325 7.42512C23.2986 7.42433 23.2727 7.42612 23.2475 7.43028C20.6177 7.35831 17.9187 8.40663 16.8729 8.86382C16.828 8.68974 16.7701 8.47503 16.6992 8.23069C16.5078 7.57175 16.2194 6.69134 15.8313 5.80872C15.8289 5.80245 15.8263 5.79624 15.8236 5.79009C15.4362 4.911 14.9395 4.00845 14.3246 3.32246C13.7109 2.63769 12.9365 2.12325 12.0023 2.13662L12.0017 2.13663C11.4693 2.14494 10.9175 2.32938 10.3603 2.69449C9.56118 3.21655 8.87789 4.14586 8.2898 5.26284C7.69695 6.38883 7.17826 7.74973 6.7288 9.18567C5.83079 12.0546 5.19521 15.2686 4.801 17.6111C4.79803 17.6252 4.79576 17.6373 4.79404 17.6473L4.79141 17.6637L4.79138 17.6639L4.73104 18.0288L4.73096 18.0293C4.58608 18.9127 4.47862 19.6502 4.40734 20.1672C4.3717 20.4257 4.34509 20.6292 4.32736 20.7682C4.32047 20.8223 4.31492 20.8666 4.3107 20.9007C4.30444 20.9117 4.29754 20.9239 4.29003 20.9372C4.25009 21.0083 4.19298 21.1121 4.12265 21.2462C3.98201 21.5143 3.78831 21.9036 3.57321 22.393C3.14341 23.3711 2.62615 24.754 2.27747 26.3731C1.58089 29.6077 1.54955 33.8297 4.29163 37.6298C7.02004 41.4109 11.4878 43.4606 15.2209 44.5675C17.0941 45.1229 18.7986 45.4457 20.0349 45.6297C20.6534 45.7218 21.1555 45.7793 21.5041 45.8138C21.6784 45.8311 21.8144 45.8426 21.9074 45.8499C21.9539 45.8535 21.9896 45.856 22.014 45.8577L22.0421 45.8596L22.0496 45.86L22.0518 45.8602L22.0524 45.8602C22.0526 45.8602 22.0528 45.8602 22.0763 45.4609ZM22.0763 45.4609L22.0749 45.8609C22.0675 45.8609 22.0601 45.8607 22.0528 45.8602L22.0763 45.4609Z" fill="#5C5C68" stroke="black" stroke-width="0.8" stroke-linejoin="round"/>
<g opacity="0.6">
<path opacity="0.6" d="M29.7756 10.1858C28.2086 9.94394 26.5771 9.59427 25.0252 9.38712C24.7816 9.72937 23.99 9.98072 23.0527 9.97933C21.9826 9.97558 21.1085 9.64674 21.0147 9.23041C18.3319 9.3374 16.4677 9.75043 16.4677 9.75043L16.4692 9.74875C16.5617 9.70346 19.9564 8.03546 23.1827 8.15156L23.1836 8.14398C26.4053 8.23897 29.6743 10.1267 29.7756 10.1858Z" fill="white"/>
</g>
<g opacity="0.6">
<path opacity="0.6" d="M39.9084 12.8415C36.4105 0.532146 31.885 5.48438 31.7641 5.62061C32.8784 3.83354 34.45 2.45781 36.3363 3.87538C38.077 5.18471 39.2001 9.01594 39.9084 12.8415Z" fill="white"/>
</g>
<g opacity="0.6">
<path opacity="0.6" d="M15.4433 5.79076C9.22986 -2.34047 5.37263 16.5566 5.17976 17.5268C5.96555 12.8541 7.7098 4.73441 10.5651 2.86912C11.0728 2.53636 11.5521 2.38339 11.9938 2.37675C13.5372 2.3544 14.6838 4.06611 15.4433 5.79076Z" fill="white"/>
</g>
<path d="M15.2851 16.0027C14.9393 16.0243 14.5962 16.0768 14.2598 16.1594C8.60358 17.5242 8.3799 26.7425 8.3799 26.7425C8.3799 26.7425 5.54704 25.2183 3.83836 28.4269C2.60929 30.7342 3.07106 33.8071 3.42903 35.3783C3.73856 36.0574 4.09605 36.7339 4.56348 37.3936C9.76858 44.7387 21.7152 45.448 21.7152 45.448C21.7152 45.448 21.9323 45.4361 21.9545 45.436C21.9768 45.436 22.1922 45.4635 22.1922 45.4635C22.1922 45.4635 34.16 45.5399 39.8358 38.5524C40.3453 37.9248 40.7466 37.273 41.1 36.616C41.5606 35.0716 42.2232 32.0355 41.1479 29.6525C39.6537 26.3392 36.7266 27.6737 36.7266 27.6737C36.7266 27.6737 37.1086 18.4606 31.5542 16.7276C30.8599 16.5109 30.2022 16.437 29.5808 16.4723C25.2301 16.7198 22.7127 22.3575 22.7127 22.3575C22.7127 22.3575 20.5712 16.5666 16.2458 16.0356C15.9272 15.9953 15.6057 15.9843 15.2851 16.0027V16.0027Z" fill="white"/>
<g opacity="0.2">
<path opacity="0.2" d="M41.7578 34.0464C41.6491 34.9136 41.4681 35.7702 41.2167 36.6073C40.8639 37.2658 40.4625 37.9162 39.9523 38.5442C34.2763 45.5318 22.309 45.4551 22.309 45.4551C22.309 45.4551 22.0932 45.4296 22.0718 45.4283C22.0505 45.427 21.8322 45.4393 21.8322 45.4393C21.8322 45.4393 9.88635 44.7304 4.68128 37.3858C4.21176 36.7258 3.85483 36.0497 3.54524 35.3699C3.40438 34.7514 3.29929 34.1252 3.23047 33.4946C3.33893 33.6582 3.4539 33.8212 3.57539 33.9837C9.06822 41.3043 21.7601 41.9508 21.7601 41.9508C21.7601 41.9508 21.9921 41.9373 22.0149 41.9385C22.0378 41.9397 22.2667 41.9641 22.2667 41.9641C22.2667 41.9641 34.9832 41.9782 41.0532 34.9576C41.3038 34.6664 41.539 34.3623 41.7578 34.0464V34.0464Z" fill="black"/>
</g>
<path d="M7.63853 16.6365L8.03242 16.7061C7.63853 16.6365 7.63854 16.6364 7.63856 16.6363L7.63864 16.6358L7.63893 16.6342L7.64004 16.6279L7.64438 16.6037L7.66132 16.5101C7.67623 16.4283 7.69828 16.3087 7.72696 16.1566C7.78431 15.8524 7.86819 15.4184 7.97449 14.8979C8.18695 13.8574 8.48953 12.4687 8.84932 11.0801C9.2081 9.69539 9.62783 8.2948 10.077 7.23812C10.3005 6.71222 10.5404 6.24951 10.7964 5.91373C11.0354 5.60038 11.3731 5.28655 11.808 5.30144L7.63853 16.6365ZM7.63853 16.6365C7.60525 16.8247 7.70978 17.0102 7.88804 17.0791C8.06631 17.1481 8.26847 17.0814 8.37057 16.9198M7.63853 16.6365L8.37057 16.9198M14.2308 10.7011C14.6237 10.6263 14.6237 10.6262 14.6237 10.6261L14.6237 10.6258L14.6235 10.6249L14.6229 10.6218L14.6206 10.6102L14.612 10.5669C14.6045 10.5293 14.5933 10.4747 14.5787 10.4055C14.5493 10.267 14.5059 10.07 14.449 9.83357C14.3356 9.36176 14.1678 8.7289 13.9513 8.09164C13.7364 7.45896 13.4665 6.80069 13.143 6.28992C12.9811 6.0344 12.7958 5.79952 12.5835 5.62305C12.3698 5.44547 12.1095 5.31175 11.8081 5.30144L14.2308 10.7011ZM14.2308 10.7011L14.6237 10.6263C14.6555 10.7929 14.5787 10.9615 14.432 11.0468C12.5814 12.1241 11.0644 13.5914 10.0063 14.7975C9.47843 15.3992 9.06766 15.9326 8.78951 16.3146C8.6505 16.5055 8.54477 16.6584 8.47427 16.7627C8.43903 16.8149 8.4126 16.855 8.39523 16.8816L8.37601 16.9113L8.37156 16.9182L8.37063 16.9197L8.37057 16.9198M14.2308 10.7011L8.37057 16.9198" fill="#FF5283" stroke="black" stroke-width="0.8" stroke-linejoin="round"/>
<path d="M38.0775 17.4405C38.4751 17.3969 38.4751 17.3968 38.4751 17.3967L38.4751 17.3962L38.4749 17.3946L38.4742 17.3883L38.4714 17.3638L38.4607 17.2693C38.4512 17.1867 38.437 17.0658 38.4184 16.9122C38.3811 16.6049 38.3259 16.1662 38.2539 15.6398C38.1102 14.5876 37.8993 13.1819 37.6314 11.7726C37.3642 10.3673 37.0372 8.94213 36.6583 7.8583C36.4697 7.3189 36.2607 6.84148 36.0272 6.48969C35.8093 6.16146 35.4928 5.8263 35.0579 5.81275L38.0775 17.4405ZM38.0775 17.4405L38.4751 17.3969C38.496 17.5869 38.3795 17.7651 38.1971 17.8222C38.0148 17.8794 37.8175 17.7995 37.7262 17.6317L37.7261 17.6316L37.7261 17.6315L37.7252 17.63L37.7212 17.6227L37.704 17.5919C37.6884 17.5642 37.6647 17.5225 37.6329 17.4681C37.5694 17.3593 37.4739 17.1999 37.3477 17.0002C37.0952 16.6009 36.7202 16.0417 36.2329 15.4067C35.256 14.1337 33.8383 12.57 32.062 11.3732C31.9213 11.2784 31.8557 11.1052 31.8983 10.941L32.2855 11.0415C31.8983 10.941 31.8984 10.9409 31.8984 10.9408L31.8984 10.9405L31.8987 10.9396L31.8995 10.9365L31.9025 10.9252L31.9139 10.8825C31.9239 10.8455 31.9386 10.7917 31.9578 10.7236C31.9962 10.5874 32.0525 10.3936 32.1247 10.1615C32.2689 9.69812 32.478 9.07765 32.7358 8.45601C32.9919 7.83882 33.3044 7.19972 33.6608 6.71132C33.8391 6.46699 34.0395 6.2448 34.263 6.08268C34.4879 5.91954 34.7564 5.80324 35.0578 5.81275C35.0577 5.81275 35.0576 5.81274 35.0575 5.81274L38.0775 17.4405Z" fill="#FF5283" stroke="black" stroke-width="0.8" stroke-linejoin="round"/>
<path d="M16.0583 28.5486C15.5595 28.3717 15.1415 28.1734 14.7316 27.9818C14.3269 27.7878 13.939 27.6024 13.5586 27.4289C13.1817 27.2565 12.7964 27.1032 12.4041 26.9696C12.2045 26.8998 11.9986 26.8461 11.7778 26.7889C11.557 26.7318 11.3246 26.6924 11.0602 26.6314C11.4369 26.2524 11.9711 26.0655 12.5049 26.0328C13.0388 26.0001 13.5783 26.1225 14.0528 26.3372C14.5205 26.5517 14.9422 26.855 15.2944 27.2301C15.6343 27.6034 15.9255 28.0291 16.0583 28.5486Z" fill="black"/>
<path d="M16.118 28.6218C15.591 28.5721 15.1372 28.4821 14.6929 28.3965C14.2486 28.3109 13.8316 28.2225 13.4202 28.1471C13.008 28.076 12.6064 28.0145 12.1895 27.9841C11.9789 27.9652 11.7659 27.9636 11.5378 27.9609C11.3097 27.9582 11.0746 27.9781 10.8035 27.9837C11.0758 27.5241 11.548 27.2124 12.0578 27.0501C12.5676 26.8879 13.1204 26.8743 13.6331 26.9663C14.1391 27.0601 14.6221 27.2511 15.0554 27.5287C15.4763 27.8079 15.861 28.1505 16.118 28.6218Z" fill="black"/>
<path d="M27.8182 28.1496C28.3101 27.9531 28.7207 27.7406 29.1232 27.5342C29.5214 27.3254 29.9012 27.1258 30.2749 26.9381C30.6452 26.752 31.0245 26.5846 31.4116 26.4365C31.6087 26.3594 31.8125 26.2981 32.0307 26.2317C32.2489 26.1653 32.4802 26.1188 32.742 26.0482C32.3515 25.6831 31.8114 25.5164 31.2763 25.5034C30.7412 25.4904 30.207 25.6324 29.7408 25.8648C29.2813 26.0966 28.8711 26.4153 28.533 26.8033C28.2061 27.1888 27.9315 27.6253 27.8182 28.1496Z" fill="black"/>
<path d="M27.7596 28.2253C28.2842 28.1555 28.7347 28.0495 29.1755 27.9476C29.6163 27.8457 30.0297 27.7418 30.4381 27.6514C30.8428 27.5614 31.2519 27.4918 31.6637 27.4431C31.8735 27.4164 32.0862 27.4077 32.3141 27.3959C32.5421 27.3841 32.7774 27.396 33.0487 27.3917C32.7594 26.9423 32.2762 26.6483 31.7606 26.505C31.2449 26.3617 30.6923 26.3685 30.1834 26.4794C29.6812 26.5919 29.2055 26.8006 28.7828 27.094C28.3708 27.3885 27.9978 27.7446 27.7596 28.2253Z" fill="black"/>
<g opacity="0.3">
<path opacity="0.3" d="M30.0543 33.4942C30.0221 34.4292 28.2327 36.8921 25.9623 35.5745C23.9901 34.4298 25.1329 32.4695 25.1329 32.4695L19.1982 32.15C19.1982 32.15 20.8106 34.8301 18.321 35.522C15.8314 36.2139 14.5802 32.7712 14.5802 32.7712C13.4074 36.2685 16.0445 37.6261 16.0445 37.6261C17.0361 41.8785 19.1279 43.9551 21.7264 44.0949C25.8592 44.3176 28.0201 38.0838 28.0201 38.0838C30.9003 37.5695 30.0543 33.4942 30.0543 33.4942ZM24.5702 40.3803C24.5565 40.6437 24.5049 40.9039 24.417 41.1526C24.0238 42.269 22.9405 43.0456 21.7212 42.98C20.4871 42.9133 19.4845 42.0037 19.2282 40.8319C19.1742 40.5883 19.1539 40.3386 19.1677 40.0895L19.3307 37.083C19.9405 36.9387 20.5066 36.6496 20.9811 36.2402C21.3562 35.9181 21.6635 35.5246 21.8851 35.0826C22.1066 34.6406 22.2381 34.1589 22.2717 33.6656C22.2025 35.3161 23.2338 36.7704 24.7351 37.3441L24.5702 40.3803Z" fill="black"/>
</g>
<path d="M19.2279 40.831C17.689 39.4113 17.0508 36.9473 17.0508 36.9473C17.7808 37.2139 18.5729 37.2611 19.3294 37.083L19.1664 40.0895C19.1529 40.3383 19.1736 40.5878 19.2279 40.831V40.831Z" fill="black"/>
<path d="M24.7342 37.3425L24.5707 40.3796C24.5569 40.6432 24.5052 40.9034 24.4172 41.1522C24.0243 42.2686 22.9409 43.0449 21.7214 42.9794C20.4873 42.9129 19.4847 42.0031 19.2284 40.8312C19.1744 40.5877 19.1541 40.3379 19.1679 40.0889L19.3309 37.0824C19.9407 36.9382 20.5068 36.6491 20.9813 36.2398C21.3563 35.9176 21.6636 35.5241 21.8851 35.0821C22.1067 34.6401 22.2382 34.1585 22.2719 33.6652C22.2027 35.3154 23.2332 36.7693 24.7342 37.3425Z" fill="#ED2E7A"/>
<path d="M27.1018 37.4879C27.1018 37.4879 26.2162 39.8727 24.4167 41.1525C24.5046 40.9036 24.5563 40.6434 24.5701 40.3798L24.7336 37.3427C25.4899 37.6315 26.3164 37.6821 27.1023 37.4878L27.1018 37.4879Z" fill="black"/>
<path d="M24.7538 37.5931C24.7423 37.594 24.7307 37.5941 24.7191 37.5934C24.6861 37.5917 24.6537 37.5835 24.6239 37.5692C24.5941 37.555 24.5674 37.5349 24.5453 37.5103C24.5233 37.4857 24.5063 37.4569 24.4954 37.4257C24.4845 37.3945 24.4799 37.3614 24.4818 37.3284L24.5067 36.8649C24.5132 36.8004 24.5443 36.7409 24.5936 36.6988C24.6429 36.6567 24.7065 36.6353 24.7712 36.639C24.8359 36.6427 24.8967 36.6713 24.9408 36.7187C24.985 36.7662 25.0091 36.8288 25.0081 36.8936L24.9832 37.3569C24.9796 37.4173 24.9545 37.4743 24.9124 37.5177C24.8703 37.5611 24.814 37.5878 24.7538 37.5931V37.5931Z" fill="#390075"/>
<path d="M26.5523 37.982C26.3464 37.9991 26.1396 38.0021 25.9333 37.991C25.1452 37.9495 24.3826 37.6982 23.7243 37.2629C23.066 36.8276 22.5361 36.2242 22.1894 35.5152C21.8245 36.0906 21.3323 36.5746 20.7508 36.9297C20.1693 37.2848 19.514 37.5016 18.8354 37.5633C18.1568 37.625 17.4731 37.5301 16.8371 37.2858C16.201 37.0415 15.6296 36.6543 15.1668 36.1542C14.3783 35.2966 13.978 34.1909 14.04 33.0403C14.0437 32.9714 14.061 32.9039 14.0908 32.8417C14.1206 32.7795 14.1624 32.7237 14.2137 32.6776C14.2651 32.6315 14.325 32.596 14.3901 32.5731C14.4552 32.5502 14.5242 32.5403 14.5931 32.544C14.662 32.5477 14.7295 32.565 14.7917 32.5948C14.8539 32.6246 14.9097 32.6664 14.9558 32.7177C15.0019 32.7691 15.0374 32.829 15.0603 32.8941C15.0832 32.9592 15.0931 33.0282 15.0894 33.0971C15.0662 33.5252 15.1296 33.9535 15.2757 34.3566C15.4219 34.7596 15.6479 35.129 15.9402 35.4426C16.5404 36.0942 17.373 36.4835 18.2579 36.5263C20.0788 36.6242 21.6545 35.266 21.7732 33.4985L22.8223 33.5553C22.7496 35.3244 24.171 36.8435 25.9911 36.9417C27.8331 37.0402 29.4119 35.6639 29.5087 33.8723C29.5187 33.735 29.5821 33.6071 29.6854 33.5162C29.7887 33.4252 29.9235 33.3783 30.061 33.3857C30.1984 33.3932 30.3275 33.4542 30.4204 33.5557C30.5133 33.6573 30.5626 33.7913 30.5578 33.9288C30.44 36.0943 28.6989 37.8025 26.5523 37.982Z" fill="black"/>
<path d="M24.7957 41.5435C24.6809 41.5532 24.5661 41.5249 24.469 41.4629C24.3718 41.401 24.2977 41.3088 24.2581 41.2006C24.2185 41.0924 24.2155 40.9742 24.2497 40.8642C24.2838 40.7542 24.3532 40.6584 24.4471 40.5917C26.0884 39.4242 26.936 37.1944 26.9445 37.1717C26.9931 37.041 27.0916 36.9351 27.2184 36.8771C27.3451 36.8192 27.4897 36.8139 27.6203 36.8625C27.7509 36.9112 27.8569 37.0097 27.9148 37.1364C27.9728 37.2632 27.9781 37.4077 27.9294 37.5384C27.891 37.6418 26.9653 40.09 25.056 41.4479C24.9794 41.5025 24.8895 41.5355 24.7957 41.5435V41.5435Z" fill="black"/>
<path d="M18.9882 41.2227C18.9157 41.2289 18.8427 41.2199 18.7738 41.1963C18.7049 41.1726 18.6418 41.1349 18.5883 41.0855C16.9546 39.5782 16.2859 37.0532 16.258 36.9463C16.223 36.8114 16.243 36.6681 16.3136 36.548C16.3843 36.4279 16.4997 36.3407 16.6346 36.3057C16.7695 36.2707 16.9128 36.2907 17.0329 36.3613C17.153 36.432 17.2402 36.5474 17.2752 36.6823C17.2813 36.7056 17.8973 39.0182 19.3006 40.313C19.3757 40.3821 19.429 40.4716 19.454 40.5705C19.479 40.6694 19.4747 40.7734 19.4416 40.8699C19.4084 40.9664 19.3479 41.0511 19.2674 41.1138C19.1869 41.1764 19.0899 41.2143 18.9882 41.2227V41.2227Z" fill="black"/>
<path d="M22.1585 43.6765C22.0122 43.6887 21.8653 43.6907 21.7187 43.6827C19.9399 43.587 18.5719 42.0422 18.669 40.2394L18.8319 37.2327C18.8345 37.163 18.8509 37.0945 18.8803 37.0312C18.9096 36.9679 18.9513 36.9111 19.0028 36.8641C19.0543 36.8171 19.1146 36.7808 19.1803 36.7574C19.246 36.7339 19.3157 36.7238 19.3854 36.7275C19.455 36.7313 19.5232 36.7489 19.586 36.7793C19.6487 36.8097 19.7048 36.8523 19.751 36.9046C19.7971 36.9569 19.8324 37.0179 19.8547 37.0839C19.8771 37.15 19.886 37.2199 19.8811 37.2894L19.7181 40.2959C19.6524 41.5201 20.5752 42.5689 21.7753 42.6336C22.0614 42.6485 22.3476 42.606 22.617 42.5086C22.8865 42.4112 23.1337 42.2608 23.344 42.0663C23.78 41.6702 24.0415 41.1177 24.0714 40.5294L24.235 37.4933C24.245 37.356 24.3085 37.2282 24.4117 37.1372C24.515 37.0462 24.6499 36.9994 24.7873 37.0068C24.9248 37.0142 25.0538 37.0752 25.1467 37.1768C25.2396 37.2783 25.289 37.4123 25.2842 37.5498L25.1207 40.5872C25.0763 41.4508 24.6921 42.2617 24.052 42.843C23.5307 43.3232 22.8646 43.6164 22.1585 43.6765Z" fill="black"/>
<path d="M26.268 30.2077C26.1859 31.7319 24.5194 33.7158 22.2923 33.5959C19.6998 33.4561 18.2537 31.4424 18.336 29.9185C18.4184 28.3945 19.6922 28.1192 22.2848 28.2588C24.8773 28.3983 26.3501 28.6838 26.268 30.2077Z" fill="black"/>
<path d="M24.0469 29.7283C24.064 29.4099 23.314 29.1107 22.3717 29.06C21.4294 29.0093 20.6517 29.2263 20.6345 29.5446C20.6174 29.863 21.3674 30.1622 22.3097 30.2129C23.252 30.2636 24.0298 30.0466 24.0469 29.7283Z" fill="white"/>
<path d="M22.6485 34.4535C22.6663 34.9164 22.6416 35.3771 22.6088 35.8371C22.5761 36.2972 22.5181 36.7563 22.4607 37.215C22.3425 38.1313 22.2023 39.0494 22.0059 39.9621C22.0031 39.9758 21.9955 39.9881 21.9845 39.9966C21.9734 40.0052 21.9596 40.0095 21.9456 40.0088C21.9317 40.008 21.9184 40.0023 21.9083 39.9926C21.8982 39.9829 21.892 39.9699 21.8907 39.9559C21.7936 39.0269 21.7524 38.1006 21.7336 37.1759C21.726 36.7135 21.7174 36.2512 21.7343 35.7901C21.7511 35.329 21.7755 34.8683 21.8429 34.41C21.8573 34.3098 21.9088 34.2187 21.9871 34.1545C22.0654 34.0903 22.1648 34.0577 22.2659 34.0631C22.367 34.0686 22.4624 34.1116 22.5334 34.1839C22.6043 34.2561 22.6457 34.3523 22.6493 34.4535L22.6485 34.4535Z" fill="black"/>
</svg>
