<svg width="38" height="45" viewBox="0 0 38 45" fill="none" xmlns="http://www.w3.org/2000/svg">
<path fill-rule="evenodd" clip-rule="evenodd" d="M17.7918 12.8083L13.3234 8.52707C12.7981 8.02379 12.7932 7.2125 13.3206 6.70719C13.8444 6.20538 14.6943 6.20612 15.22 6.70985L17.7918 9.1739V1.52925C17.7918 0.817348 18.3871 0.240234 19.1329 0.240234C19.8736 0.240234 20.4741 0.8096 20.4741 1.52925V9.215L23.0887 6.70985C23.614 6.20657 24.4608 6.20188 24.9882 6.70719C25.5119 7.209 25.5112 8.02334 24.9854 8.52707L20.4741 12.8494V20.164L26.7637 16.5327L28.2659 10.4616C28.4404 9.75639 29.1452 9.34856 29.8405 9.54928C30.5407 9.75141 30.9582 10.4839 30.7839 11.1885L29.9112 14.7155L36.0306 10.818C36.6471 10.4621 37.4433 10.6868 37.8146 11.33C38.1834 11.9687 37.9892 12.7711 37.366 13.131L31.251 17.0259L34.7347 18.0315C35.4327 18.233 35.8565 18.9656 35.6826 19.6681C35.5076 20.3755 34.8026 20.777 34.1052 20.5756L28.1034 18.8431L21.6884 22.5468L28.1644 26.2858L34.0967 24.5733C34.7941 24.372 35.4991 24.7734 35.6741 25.4808C35.848 26.1833 35.4242 26.9159 34.7262 27.1174L31.3119 28.103L37.3646 31.9619C37.9811 32.3178 38.1845 33.1197 37.8132 33.7629C37.4445 34.4016 36.6524 34.6347 36.0292 34.2748L29.9409 30.3954L30.8087 33.9026C30.9831 34.6072 30.5656 35.3397 29.8654 35.5418C29.1701 35.7425 28.4652 35.3347 28.2907 34.6295L26.7934 28.5782L20.4741 24.9297V32.3547L25.0001 36.6912C25.5259 37.1949 25.5267 38.0093 25.0029 38.5111C24.4755 39.0164 23.6288 39.0117 23.1035 38.5084L20.4741 35.9891V43.7109C20.4741 44.4228 19.8788 44.9999 19.1329 44.9999C18.3923 44.9999 17.7918 44.4305 17.7918 43.7109V35.9942L15.1677 38.5084C14.642 39.0121 13.792 39.0129 13.2683 38.5111C12.7409 38.0058 12.7458 37.1945 13.2711 36.6912L17.7918 32.3598V24.7965L11.1714 28.6188L9.68831 34.6126C9.51397 35.3172 8.81381 35.727 8.11363 35.5249C7.4183 35.3242 6.9958 34.5909 7.1703 33.8857L8.02387 30.436L1.9712 34.2949C1.35467 34.6509 0.558511 34.4261 0.187186 33.783C-0.181568 33.1443 0.0125828 32.3418 0.635822 31.982L6.72409 28.1025L3.25286 27.1005C2.55549 26.8992 2.12987 26.1714 2.30492 25.4639C2.47875 24.7614 3.18437 24.3549 3.88236 24.5564L9.8716 26.2853L16.3469 22.5468L9.90137 18.8255L3.89256 20.5601C3.19457 20.7616 2.48895 20.3551 2.31512 19.6526C2.14007 18.9451 2.56569 18.2173 3.26306 18.016L6.75386 17.0083L0.634416 13.1109C0.017887 12.7549 -0.185544 11.953 0.185781 11.3099C0.554535 10.6712 1.34655 10.4381 1.96979 10.7979L8.08483 14.6928L7.21389 11.173C7.03939 10.4678 7.46189 9.73448 8.15722 9.53375C8.8574 9.33163 9.55756 9.7415 9.7319 10.4461L11.2323 16.51L17.7918 20.2972V12.8083Z" fill="white" fill-opacity="0.7"/>
</svg>
